<?xml version="1.0" encoding="UTF-8" standalone="no"?>
<svg
   xmlns:dc="http://purl.org/dc/elements/1.1/"
   xmlns:cc="http://creativecommons.org/ns#"
   xmlns:rdf="http://www.w3.org/1999/02/22-rdf-syntax-ns#"
   xmlns:svg="http://www.w3.org/2000/svg"
   xmlns="http://www.w3.org/2000/svg"
   xmlns:sodipodi="http://sodipodi.sourceforge.net/DTD/sodipodi-0.dtd"
   xmlns:inkscape="http://www.inkscape.org/namespaces/inkscape"
   xml:space="preserve"
   style="enable-background:new 0 0 1190.6 841.9;"
   viewBox="0 0 1190.6 841.9"
   y="0px"
   x="0px"
   id="Layer_1"
   version="1.1"
   inkscape:version="0.91 r"
   sodipodi:docname="logo_link.svg"><sodipodi:namedview
     pagecolor="#ffffff"
     bordercolor="#666666"
     borderopacity="1"
     objecttolerance="10"
     gridtolerance="10"
     guidetolerance="10"
     inkscape:pageopacity="0"
     inkscape:pageshadow="2"
     inkscape:window-width="1920"
     inkscape:window-height="1052"
     id="namedview4183"
     showgrid="false"
     inkscape:zoom="0.5178762"
     inkscape:cx="599.63099"
     inkscape:cy="549.50235"
     inkscape:window-x="0"
     inkscape:window-y="1"
     inkscape:window-maximized="1"
     inkscape:current-layer="XMLID_22_" /><metadata
     id="metadata24"><rdf:RDF><cc:Work
         rdf:about=""><dc:format>image/svg+xml</dc:format><dc:type
           rdf:resource="http://purl.org/dc/dcmitype/StillImage" /><dc:title /></cc:Work></rdf:RDF></metadata><defs
     id="defs22" /><style
     id="style3"
     type="text/css">
	.st0{fill:#5D5E5E;}
</style><g
     id="XMLID_18_"><g
       transform="translate(-6.416233e-6,0)"
       id="XMLID_16_"><g
         id="XMLID_22_"><g
           id="g4152"
           transform="translate(30.859379,0)"><path
             inkscape:connector-curvature="0"
             id="path4185"
             d="m 307.52521,614.11435 510.8173,0 0,1.14539"
             style="fill:none;fill-rule:evenodd;stroke:#009fad;stroke-width:3.39266992;stroke-linecap:butt;stroke-linejoin:miter;stroke-miterlimit:4;stroke-dasharray:none;stroke-opacity:1" /><g
             style="font-style:normal;font-variant:normal;font-weight:normal;font-stretch:normal;font-size:60px;line-height:125%;font-family:'Droid Sans';-inkscape-font-specification:'Droid Sans';letter-spacing:0px;word-spacing:0px;fill:#009fad;fill-opacity:1;stroke:none;stroke-width:1px;stroke-linecap:butt;stroke-linejoin:miter;stroke-opacity:1"
             id="text4187"><path
               d="m 324.97528,601.03979 q 0,1.95313 -0.70801,3.41797 -0.708,1.46485 -2.05078,2.46582 -1.31836,0.97657 -3.19824,1.46485 -1.87988,0.48828 -4.22363,0.48828 -2.66114,0 -4.56543,-0.43945 -1.9043,-0.41504 -3.34473,-1.24512 l 0,-4.05274 q 0.75684,0.39063 1.68457,0.78125 0.92774,0.36622 1.95313,0.65918 1.02539,0.29297 2.09961,0.48829 1.09863,0.17089 2.17285,0.17089 1.58691,0 2.68554,-0.26855 1.12305,-0.26856 1.80664,-0.75684 0.70801,-0.51269 1.02539,-1.2207 0.31739,-0.73242 0.31739,-1.61133 0,-0.75683 -0.24414,-1.36719 -0.24414,-0.61035 -0.90332,-1.19628 -0.63477,-0.61036 -1.75782,-1.22071 -1.12304,-0.61035 -2.88086,-1.36719 -1.75781,-0.75683 -3.17382,-1.48925 -1.3916,-0.73243 -2.36817,-1.63575 -0.97656,-0.90332 -1.51367,-2.07519 -0.51269,-1.19629 -0.51269,-2.83203 0,-1.70899 0.65918,-3.02735 0.68359,-1.34277 1.90429,-2.24609 1.22071,-0.90332 2.92969,-1.36719 1.70898,-0.46386 3.80859,-0.46386 2.36817,0 4.32129,0.51269 1.97754,0.5127 3.73535,1.34277 l -1.53808,3.58887 q -1.58692,-0.70801 -3.27149,-1.2207 -1.66015,-0.53711 -3.39355,-0.53711 -2.49024,0 -3.68652,0.83008 -1.19629,0.80566 -1.19629,2.31933 0,0.8545 0.26855,1.48926 0.29297,0.63477 0.97656,1.19629 0.6836,0.56152 1.83106,1.14746 1.14746,0.56152 2.85644,1.26953 1.75782,0.73242 3.125,1.46485 1.39161,0.73242 2.36817,1.66015 0.97656,0.90332 1.48926,2.0752 0.51269,1.17187 0.51269,2.80761 z"
               style="font-size:50px"
               id="path4158"
               inkscape:connector-curvature="0" /><path
               d="m 363.59833,608.38843 0,-17.26074 q 0,-3.17383 -1.22071,-4.76075 -1.2207,-1.58691 -3.78418,-1.58691 -1.78222,0 -3.02734,0.58594 -1.24512,0.56152 -2.05078,1.68457 -0.78125,1.09863 -1.14746,2.75879 -0.36621,1.63574 -0.36621,3.78418 l 0,14.79492 -4.46778,0 0,-17.26074 q 0,-3.17383 -1.2207,-4.76075 -1.19629,-1.58691 -3.75976,-1.58691 -1.87989,0 -3.14942,0.63476 -1.26953,0.63477 -2.05078,1.87989 -0.75684,1.24511 -1.09863,3.05176 -0.31739,1.80664 -0.31739,4.15039 l 0,13.8916 -4.44335,0 0,-26.80664 3.61328,0 0.63476,3.61328 0.24414,0 q 0.58594,-1.04981 1.3916,-1.80664 0.80567,-0.78125 1.75782,-1.29395 0.97656,-0.51269 2.05078,-0.75683 1.09863,-0.24414 2.22168,-0.24414 2.92969,0 4.8584,1.07421 1.95312,1.07422 2.88086,3.36915 l 0.19531,0 q 0.63476,-1.14747 1.51367,-1.97754 0.90332,-0.83008 1.95313,-1.36719 1.07421,-0.56152 2.24609,-0.83008 1.17187,-0.26855 2.39258,-0.26855 4.27246,0 6.4209,2.34375 2.17285,2.31933 2.17285,7.44628 l 0,17.50489 -4.44336,0 z"
               style="font-size:50px"
               id="path4160"
               inkscape:connector-curvature="0" /><path
               d="m 391.43036,608.38843 -0.90332,-3.71094 -0.19531,0 q -0.80567,1.09863 -1.61133,1.9043 -0.80567,0.78125 -1.75781,1.29394 -0.95215,0.5127 -2.12403,0.75684 -1.17187,0.24414 -2.70996,0.24414 -1.68457,0 -3.10058,-0.48828 -1.41602,-0.46387 -2.46583,-1.44043 -1.02539,-1.00098 -1.61132,-2.49024 -0.58594,-1.51367 -0.58594,-3.56445 0,-4.00391 2.80762,-6.15234 2.83203,-2.14844 8.59375,-2.34375 l 4.49218,-0.1709 0,-1.68457 q 0,-1.63574 -0.36621,-2.73438 -0.34179,-1.09863 -1.02539,-1.75781 -0.65918,-0.68359 -1.66015,-0.97656 -0.97657,-0.29297 -2.2461,-0.29297 -2.02636,0 -3.78418,0.58594 -1.7334,0.58593 -3.34472,1.41601 l -1.5625,-3.34472 q 1.80664,-0.97657 4.02832,-1.66016 2.22168,-0.68359 4.66308,-0.68359 2.49024,0 4.29688,0.51269 1.83105,0.48828 3.00293,1.58692 1.19629,1.07421 1.78222,2.75878 0.58594,1.68457 0.58594,4.07715 l 0,18.35938 -3.19824,0 z m -8.1543,-3.10059 q 1.48926,0 2.75879,-0.46387 1.26953,-0.46386 2.19727,-1.3916 0.92773,-0.95215 1.44043,-2.36816 0.53711,-1.44043 0.53711,-3.36914 l 0,-2.41699 -3.49122,0.17089 q -2.19726,0.0977 -3.68652,0.48829 -1.48926,0.39062 -2.39258,1.09863 -0.8789,0.68359 -1.26953,1.68457 -0.39062,0.97656 -0.39062,2.22168 0,2.24609 1.17187,3.2959 1.19629,1.0498 3.125,1.0498 z"
               style="font-size:50px"
               id="path4162"
               inkscape:connector-curvature="0" /><path
               d="m 414.47723,581.09351 q 0.70801,0 1.58692,0.0732 0.8789,0.0488 1.51367,0.1709 l -0.58594,4.10156 q -0.68359,-0.12207 -1.41601,-0.19531 -0.70801,-0.0977 -1.34278,-0.0977 -1.53808,0 -2.80761,0.63477 -1.26954,0.61035 -2.19727,1.78222 -0.90332,1.14746 -1.41602,2.78321 -0.48828,1.61132 -0.48828,3.58886 l 0,14.45313 -4.44336,0 0,-26.80664 3.61329,0 0.5371,4.90722 0.19532,0 q 0.61035,-1.0498 1.29394,-2.02636 0.70801,-0.97657 1.5625,-1.70899 0.87891,-0.75683 1.95313,-1.19629 1.07422,-0.46386 2.4414,-0.46386 z"
               style="font-size:50px"
               id="path4164"
               inkscape:connector-curvature="0" /><path
               d="m 430.9079,605.23901 q 0.43945,0 0.97656,-0.0488 0.56152,-0.0488 1.07422,-0.12207 0.51269,-0.0733 0.92773,-0.1709 0.43946,-0.0977 0.65918,-0.1709 l 0,3.36914 q -0.31738,0.14648 -0.80566,0.29297 -0.48828,0.14648 -1.07422,0.24414 -0.58594,0.12207 -1.2207,0.1709 -0.63477,0.0732 -1.24512,0.0732 -1.51367,0 -2.80762,-0.39063 -1.29394,-0.39062 -2.24609,-1.34277 -0.92774,-0.95215 -1.46484,-2.56348 -0.53711,-1.63574 -0.53711,-4.10156 l 0,-15.55176 -3.78418,0 0,-1.97754 3.78418,-1.90429 1.90429,-5.61524 2.56348,0 0,6.15235 6.73828,0 0,3.34472 -6.73828,0 0,15.55176 q 0,2.36817 0.75684,3.56445 0.78125,1.19629 2.53906,1.19629 z"
               style="font-size:50px"
               id="path4166"
               inkscape:connector-curvature="0" /><path
               d="m 456.34735,604.79956 -0.19531,0 q -0.53711,0.83008 -1.26953,1.58691 -0.70801,0.73243 -1.66016,1.29395 -0.92773,0.56152 -2.09961,0.87891 -1.17187,0.31738 -2.63672,0.31738 -2.2705,0 -4.15039,-0.87891 -1.87988,-0.8789 -3.22265,-2.6123 -1.34278,-1.75781 -2.0752,-4.34571 -0.73242,-2.58789 -0.73242,-6.00585 0,-3.44239 0.73242,-6.03028 0.73242,-2.6123 2.0752,-4.37012 1.34277,-1.75781 3.22265,-2.63671 1.87989,-0.90332 4.15039,-0.90332 1.44043,0 2.61231,0.31738 1.17187,0.31738 2.09961,0.85449 0.95215,0.53711 1.68457,1.24512 0.73242,0.70801 1.26953,1.48926 l 0.29297,0 q -0.0732,-0.83008 -0.14649,-1.58692 -0.0488,-0.63476 -0.0976,-1.29394 -0.0488,-0.6836 -0.0488,-1.07422 l 0,-10.64453 4.44336,0 0,37.98828 -3.58887,0 -0.65918,-3.58887 z m -7.00683,0.39063 q 1.85546,0 3.125,-0.56153 1.29394,-0.56152 2.07519,-1.70898 0.80566,-1.14746 1.17188,-2.85645 0.39062,-1.7334 0.43945,-4.02832 l 0,-1.00097 q 0,-2.46582 -0.3418,-4.37012 -0.31738,-1.92871 -1.12305,-3.22266 -0.78125,-1.31836 -2.0996,-1.97754 -1.31836,-0.68359 -3.2959,-0.68359 -3.2959,0 -4.8584,2.66113 -1.53809,2.66113 -1.53809,7.6416 0,5.10254 1.53809,7.61719 1.5625,2.49024 4.90723,2.49024 z"
               style="font-size:50px"
               id="path4168"
               inkscape:connector-curvature="0" /><path
               d="m 473.53485,608.38843 -4.44336,0 0,-26.80664 4.44336,0 0,26.80664 z m -4.78516,-34.05762 q 0,-1.46484 0.73243,-2.12402 0.75683,-0.65918 1.85547,-0.65918 0.5371,0 1.00097,0.1709 0.48828,0.14648 0.83008,0.48828 0.36621,0.34179 0.56152,0.8789 0.21973,0.5127 0.21973,1.24512 0,1.41602 -0.78125,2.12402 -0.75684,0.6836 -1.83105,0.6836 -1.09864,0 -1.85547,-0.6836 -0.73243,-0.68359 -0.73243,-2.12402 z"
               style="font-size:50px"
               id="path4170"
               inkscape:connector-curvature="0" /><path
               d="m 492.33368,608.87671 q -2.46582,0 -4.61426,-0.75684 -2.14844,-0.78125 -3.73535,-2.4414 -1.58691,-1.68457 -2.49023,-4.27246 -0.90332,-2.61231 -0.90332,-6.27442 0,-3.83301 0.92773,-6.49414 0.92773,-2.68555 2.53906,-4.3457 1.63574,-1.68457 3.8086,-2.44141 2.17285,-0.75683 4.66308,-0.75683 1.9043,0 3.71094,0.41503 1.83105,0.41504 3.05176,1.0254 l -1.31836,3.75976 q -0.56153,-0.24414 -1.24512,-0.46387 -0.68359,-0.24414 -1.41602,-0.41504 -0.73242,-0.19531 -1.44042,-0.29296 -0.70801,-0.12207 -1.34278,-0.12207 -3.83301,0 -5.59082,2.46582 -1.75781,2.4414 -1.75781,7.61718 0,5.15137 1.75781,7.54395 1.78223,2.36816 5.39551,2.36816 1.97754,0 3.56445,-0.43945 1.61133,-0.46387 2.92969,-1.07422 l 0,3.95508 q -1.31836,0.70801 -2.83203,1.07422 -1.48926,0.36621 -3.66211,0.36621 z"
               style="font-size:50px"
               id="path4172"
               inkscape:connector-curvature="0" /><path
               d="m 515.82001,608.87671 q -2.68555,0 -4.90723,-0.90332 -2.22168,-0.90332 -3.83301,-2.63672 -1.58691,-1.7334 -2.46582,-4.29688 -0.8789,-2.56347 -0.8789,-5.85937 0,-3.32031 0.80566,-5.93262 0.80566,-2.6123 2.27051,-4.41894 1.46484,-1.83106 3.49121,-2.78321 2.05078,-0.95214 4.5166,-0.95214 2.41699,0 4.3457,0.8789 1.92871,0.85449 3.27149,2.44141 1.34277,1.5625 2.05078,3.78418 0.73242,2.19726 0.73242,4.88281 l 0,2.75879 -16.89453,0 q 0.12207,4.71191 1.97754,6.93359 1.87988,2.22168 5.56641,2.22168 1.24511,0 2.29492,-0.12207 1.07422,-0.12207 2.05078,-0.34179 1.00098,-0.24414 1.92871,-0.58594 0.92773,-0.36621 1.87988,-0.80567 l 0,3.95508 q -0.97656,0.46387 -1.92871,0.80567 -0.92773,0.34179 -1.92871,0.56152 -0.97656,0.21973 -2.05078,0.31738 -1.04981,0.0977 -2.29492,0.0977 z m -1.09864,-24.09668 q -2.7832,0 -4.41894,1.9043 -1.61133,1.90429 -1.87988,5.54199 l 12.01172,0 q 0,-1.66016 -0.3418,-3.02735 -0.31738,-1.3916 -1.02539,-2.36816 -0.6836,-0.97656 -1.75781,-1.51367 -1.07422,-0.53711 -2.5879,-0.53711 z"
               style="font-size:50px"
               id="path4174"
               inkscape:connector-curvature="0" /><path
               d="m 529.73602,597.03589 0,-4.10156 12.10938,0 0,4.10156 -12.10938,0 z"
               style="font-size:50px"
               id="path4176"
               inkscape:connector-curvature="0" /><path
               d="m 552.53876,608.38843 -4.44336,0 0,-37.98828 4.44336,0 0,37.98828 z"
               style="font-size:50px"
               id="path4178"
               inkscape:connector-curvature="0" /><path
               d="m 581.73798,581.58179 0,2.75879 -4.80957,0.65918 q 0.68359,0.85449 1.14746,2.19726 0.46386,1.31836 0.46386,3.00293 0,1.85547 -0.58593,3.44238 -0.56153,1.5625 -1.7334,2.70996 -1.14746,1.14747 -2.85645,1.80665 -1.70898,0.63476 -3.97949,0.63476 -0.53711,0 -1.07422,0 -0.53711,-0.0244 -0.8789,-0.0977 -0.41504,0.24415 -0.83008,0.56153 -0.39063,0.29297 -0.73242,0.68359 -0.31739,0.39063 -0.53711,0.87891 -0.19532,0.48828 -0.19532,1.07422 0,0.65918 0.29297,1.07422 0.29297,0.39062 0.78125,0.61035 0.5127,0.21972 1.19629,0.29297 0.6836,0.0732 1.44043,0.0732 l 4.29688,0 q 2.2705,0 3.833,0.58594 1.5625,0.56152 2.53907,1.53808 1.00097,0.97656 1.44043,2.31934 0.43945,1.31836 0.43945,2.80761 0,2.14844 -0.80566,3.85743 -0.78125,1.70898 -2.417,2.88086 -1.63574,1.19629 -4.15039,1.83105 -2.49023,0.63477 -5.88379,0.63477 -2.6123,0 -4.56543,-0.5127 -1.95312,-0.51269 -3.24707,-1.48926 -1.29394,-0.97656 -1.95312,-2.36816 -0.63477,-1.36719 -0.63477,-3.10059 0,-1.46484 0.46387,-2.58789 0.48828,-1.09863 1.29395,-1.90429 0.80566,-0.80567 1.85546,-1.31836 1.07422,-0.5127 2.22168,-0.78125 -1.02539,-0.46387 -1.68457,-1.46485 -0.65918,-1.00097 -0.65918,-2.29492 0,-1.48926 0.78125,-2.56348 0.78125,-1.09863 2.46582,-2.12402 -1.0498,-0.43945 -1.92871,-1.19629 -0.85449,-0.78125 -1.46484,-1.75781 -0.58594,-1.00098 -0.92774,-2.17285 -0.31738,-1.17188 -0.31738,-2.41699 0,-2.17286 0.61035,-3.88184 0.61036,-1.70898 1.80664,-2.90527 1.19629,-1.19629 2.97852,-1.83106 1.78223,-0.63476 4.15039,-0.63476 0.90332,0 1.85547,0.14648 0.97656,0.12207 1.63574,0.3418 l 8.86231,0 z m -19.79981,31.20117 q 0,0.90332 0.31738,1.68457 0.31739,0.78125 1.02539,1.34277 0.73243,0.56153 1.9043,0.87891 1.19629,0.3418 2.9541,0.3418 4.54102,0 6.78711,-1.41602 2.27051,-1.3916 2.27051,-4.02832 0,-1.12305 -0.29297,-1.83105 -0.29297,-0.70801 -0.97656,-1.12305 -0.65918,-0.39063 -1.75781,-0.53711 -1.09864,-0.14649 -2.68555,-0.14649 l -4.29688,0 q -0.85449,0 -1.78222,0.19532 -0.92774,0.19531 -1.70899,0.73242 -0.75683,0.53711 -1.26953,1.46484 -0.48828,0.95215 -0.48828,2.44141 z m 2.2461,-22.58301 q 0,2.80762 1.31835,4.17481 1.31836,1.36718 3.73536,1.36718 2.4414,0 3.68652,-1.34277 1.26953,-1.36719 1.26953,-4.27246 0,-3.00293 -1.29394,-4.41895 -1.26954,-1.41601 -3.71094,-1.41601 -2.41699,0 -3.71094,1.46484 -1.29394,1.46485 -1.29394,4.44336 z"
               style="font-size:50px"
               id="path4180"
               inkscape:connector-curvature="0" /><path
               d="m 599.07196,608.87671 q -1.44043,0 -2.6123,-0.31738 -1.17188,-0.31739 -2.12403,-0.83008 -0.92773,-0.53711 -1.66015,-1.24512 -0.70801,-0.70801 -1.26954,-1.48926 l -0.29296,0 q 0.0732,0.83008 0.14648,1.58692 0.0488,0.63476 0.0977,1.31836 0.0488,0.65918 0.0488,1.0498 l 0,11.4502 -4.44335,0 0,-38.81836 3.61328,0 0.63476,3.61328 0.19531,0 q 0.56153,-0.85449 1.26954,-1.58692 0.708,-0.75683 1.63574,-1.29394 0.95215,-0.56152 2.12402,-0.87891 1.17188,-0.34179 2.63672,-0.34179 2.29492,0 4.17481,0.8789 1.87988,0.87891 3.19824,2.63672 1.34277,1.7334 2.07519,4.32129 0.73242,2.58789 0.73242,6.00586 0,3.44238 -0.73242,6.05469 -0.73242,2.58789 -2.07519,4.3457 -1.31836,1.75781 -3.19824,2.66113 -1.87989,0.87891 -4.17481,0.87891 z m -0.85449,-24.09668 q -1.85547,0 -3.14942,0.56152 -1.26953,0.56153 -2.07519,1.70899 -0.78125,1.14746 -1.17188,2.85644 -0.36621,1.70899 -0.41504,4.02832 l 0,1.00098 q 0,2.46582 0.31739,4.39453 0.34179,1.9043 1.12304,3.22266 0.80567,1.29394 2.12403,1.97754 1.31836,0.65918 3.2959,0.65918 3.29589,0 4.83398,-2.66114 1.5625,-2.66113 1.5625,-7.6416 0,-5.07812 -1.5625,-7.59277 -1.53809,-2.51465 -4.88281,-2.51465 z"
               style="font-size:50px"
               id="path4182"
               inkscape:connector-curvature="0" /><path
               d="m 615.60028,605.67847 q 0,-0.92774 0.24414,-1.5625 0.24414,-0.65918 0.65918,-1.04981 0.41504,-0.41504 0.97656,-0.58594 0.56153,-0.19531 1.22071,-0.19531 0.63476,0 1.19629,0.19531 0.58593,0.1709 1.00097,0.58594 0.41504,0.39063 0.65918,1.04981 0.24414,0.63476 0.24414,1.5625 0,0.90332 -0.24414,1.5625 -0.24414,0.63476 -0.65918,1.0498 -0.41504,0.41504 -1.00097,0.61035 -0.56153,0.19532 -1.19629,0.19532 -0.65918,0 -1.22071,-0.19532 -0.56152,-0.19531 -0.97656,-0.61035 -0.41504,-0.41504 -0.65918,-1.0498 -0.24414,-0.65918 -0.24414,-1.5625 z"
               style="font-size:50px"
               id="path4184"
               inkscape:connector-curvature="0" /><path
               d="m 650.29266,581.58179 0,2.75879 -4.80957,0.65918 q 0.6836,0.85449 1.14746,2.19726 0.46387,1.31836 0.46387,3.00293 0,1.85547 -0.58594,3.44238 -0.56152,1.5625 -1.73339,2.70996 -1.14747,1.14747 -2.85645,1.80665 -1.70898,0.63476 -3.97949,0.63476 -0.53711,0 -1.07422,0 -0.53711,-0.0244 -0.87891,-0.0977 -0.41504,0.24415 -0.83008,0.56153 -0.39062,0.29297 -0.73242,0.68359 -0.31738,0.39063 -0.53711,0.87891 -0.19531,0.48828 -0.19531,1.07422 0,0.65918 0.29297,1.07422 0.29297,0.39062 0.78125,0.61035 0.5127,0.21972 1.19629,0.29297 0.68359,0.0732 1.44043,0.0732 l 4.29687,0 q 2.27051,0 3.83301,0.58594 1.5625,0.56152 2.53906,1.53808 1.00098,0.97656 1.44043,2.31934 0.43946,1.31836 0.43946,2.80761 0,2.14844 -0.80567,3.85743 -0.78125,1.70898 -2.41699,2.88086 -1.63574,1.19629 -4.15039,1.83105 -2.49023,0.63477 -5.88379,0.63477 -2.6123,0 -4.56543,-0.5127 -1.95312,-0.51269 -3.24707,-1.48926 -1.29394,-0.97656 -1.95312,-2.36816 -0.63477,-1.36719 -0.63477,-3.10059 0,-1.46484 0.46387,-2.58789 0.48828,-1.09863 1.29394,-1.90429 0.80567,-0.80567 1.85547,-1.31836 1.07422,-0.5127 2.22168,-0.78125 -1.02539,-0.46387 -1.68457,-1.46485 -0.65918,-1.00097 -0.65918,-2.29492 0,-1.48926 0.78125,-2.56348 0.78125,-1.09863 2.46582,-2.12402 -1.0498,-0.43945 -1.92871,-1.19629 -0.85449,-0.78125 -1.46484,-1.75781 -0.58594,-1.00098 -0.92774,-2.17285 -0.31738,-1.17188 -0.31738,-2.41699 0,-2.17286 0.61035,-3.88184 0.61035,-1.70898 1.80664,-2.90527 1.19629,-1.19629 2.97852,-1.83106 1.78222,-0.63476 4.15039,-0.63476 0.90332,0 1.85547,0.14648 0.97656,0.12207 1.63574,0.3418 l 8.8623,0 z m -19.7998,31.20117 q 0,0.90332 0.31738,1.68457 0.31738,0.78125 1.02539,1.34277 0.73242,0.56153 1.9043,0.87891 1.19629,0.3418 2.9541,0.3418 4.54102,0 6.78711,-1.41602 2.27051,-1.3916 2.27051,-4.02832 0,-1.12305 -0.29297,-1.83105 -0.29297,-0.70801 -0.97656,-1.12305 -0.65918,-0.39063 -1.75782,-0.53711 -1.09863,-0.14649 -2.68554,-0.14649 l -4.29688,0 q -0.85449,0 -1.78222,0.19532 -0.92774,0.19531 -1.70899,0.73242 -0.75683,0.53711 -1.26953,1.46484 -0.48828,0.95215 -0.48828,2.44141 z m 2.24609,-22.58301 q 0,2.80762 1.31836,4.17481 1.31836,1.36718 3.73535,1.36718 2.44141,0 3.68653,-1.34277 1.26953,-1.36719 1.26953,-4.27246 0,-3.00293 -1.29395,-4.41895 -1.26953,-1.41601 -3.71093,-1.41601 -2.417,0 -3.71094,1.46484 -1.29395,1.46485 -1.29395,4.44336 z"
               style="font-size:50px"
               id="path4186"
               inkscape:connector-curvature="0" /><path
               d="m 659.96063,608.38843 -4.44336,0 0,-26.80664 4.44336,0 0,26.80664 z m -4.78515,-34.05762 q 0,-1.46484 0.73242,-2.12402 0.75683,-0.65918 1.85547,-0.65918 0.53711,0 1.00097,0.1709 0.48828,0.14648 0.83008,0.48828 0.36621,0.34179 0.56152,0.8789 0.21973,0.5127 0.21973,1.24512 0,1.41602 -0.78125,2.12402 -0.75683,0.6836 -1.83105,0.6836 -1.09864,0 -1.85547,-0.6836 -0.73242,-0.68359 -0.73242,-2.12402 z"
               style="font-size:50px"
               id="path4188"
               inkscape:connector-curvature="0" /><path
               d="m 676.61102,605.23901 q 0.43946,0 0.97657,-0.0488 0.56152,-0.0488 1.07421,-0.12207 0.5127,-0.0733 0.92774,-0.1709 0.43945,-0.0977 0.65918,-0.1709 l 0,3.36914 q -0.31738,0.14648 -0.80567,0.29297 -0.48828,0.14648 -1.07421,0.24414 -0.58594,0.12207 -1.22071,0.1709 -0.63476,0.0732 -1.24511,0.0732 -1.51368,0 -2.80762,-0.39063 -1.29395,-0.39062 -2.2461,-1.34277 -0.92773,-0.95215 -1.46484,-2.56348 -0.53711,-1.63574 -0.53711,-4.10156 l 0,-15.55176 -3.78418,0 0,-1.97754 3.78418,-1.90429 1.9043,-5.61524 2.56347,0 0,6.15235 6.73829,0 0,3.34472 -6.73829,0 0,15.55176 q 0,2.36817 0.75684,3.56445 0.78125,1.19629 2.53906,1.19629 z"
               style="font-size:50px"
               id="path4190"
               inkscape:connector-curvature="0" /><path
               d="m 702.24579,608.38843 0,-17.26074 q 0,-3.17383 -1.29395,-4.76075 -1.26953,-1.58691 -4.0039,-1.58691 -1.97754,0 -3.32032,0.63476 -1.34277,0.63477 -2.17285,1.87989 -0.80566,1.24511 -1.17187,3.05176 -0.3418,1.80664 -0.3418,4.15039 l 0,13.8916 -4.44336,0 0,-37.98828 4.44336,0 0,11.27929 -0.19531,3.51563 0.24414,0 q 0.61035,-1.04981 1.44043,-1.80664 0.85449,-0.78125 1.85547,-1.29395 1.00097,-0.51269 2.12402,-0.75683 1.12305,-0.24414 2.29492,-0.24414 4.46778,0 6.71387,2.34375 2.27051,2.31933 2.27051,7.44628 l 0,17.50489 -4.44336,0 z"
               style="font-size:50px"
               id="path4192"
               inkscape:connector-curvature="0" /><path
               d="m 732.34833,608.38843 -0.65918,-3.58887 -0.24414,0 q -0.61035,1.04981 -1.46485,1.83106 -0.83007,0.75683 -1.83105,1.26953 -1.00098,0.48828 -2.12402,0.73242 -1.12305,0.24414 -2.29493,0.24414 -2.22168,0 -3.90625,-0.56152 -1.68457,-0.56153 -2.80761,-1.75782 -1.12305,-1.19629 -1.70899,-3.05175 -0.56152,-1.85547 -0.56152,-4.41895 l 0,-17.50488 4.44336,0 0,17.26074 q 0,3.17383 1.29394,4.76074 1.29395,1.58692 4.00391,1.58692 1.97754,0 3.32031,-0.63477 1.34278,-0.63477 2.14844,-1.85547 0.83008,-1.24512 1.17187,-3.05176 0.36622,-1.80664 0.36622,-4.15039 l 0,-13.91601 4.44335,0 0,26.80664 -3.58886,0 z"
               style="font-size:50px"
               id="path4194"
               inkscape:connector-curvature="0" /><path
               d="m 756.59149,581.09351 q 2.29492,0 4.17481,0.8789 1.87988,0.87891 3.19824,2.63672 1.34277,1.7334 2.07519,4.32129 0.73243,2.58789 0.73243,6.00586 0,3.44238 -0.73243,6.05469 -0.73242,2.58789 -2.07519,4.3457 -1.31836,1.75781 -3.19824,2.66113 -1.87989,0.87891 -4.17481,0.87891 -1.44043,0 -2.6123,-0.31738 -1.17188,-0.31739 -2.12403,-0.83008 -0.92773,-0.53711 -1.66015,-1.24512 -0.70801,-0.70801 -1.26953,-1.48926 l -0.29297,0 -0.90332,3.39356 -3.24707,0 0,-37.98828 4.44336,0 0,9.17968 q 0,0.8545 -0.0244,1.83106 -0.0244,0.95215 -0.0732,1.78223 -0.0488,0.97656 -0.0977,1.90429 l 0.19532,0 q 0.56152,-0.85449 1.26953,-1.58691 0.70801,-0.73242 1.63574,-1.26953 0.95215,-0.53711 2.12402,-0.83008 1.17188,-0.31738 2.63672,-0.31738 z m -0.85449,3.68652 q -1.95313,0 -3.27148,0.63476 -1.29395,0.61036 -2.09961,1.87989 -0.78125,1.26953 -1.12305,3.17383 -0.31738,1.90429 -0.31738,4.46777 0,2.46582 0.31738,4.39453 0.3418,1.9043 1.12305,3.22266 0.80566,1.29394 2.12402,1.97754 1.31836,0.65918 3.2959,0.65918 3.2959,0 4.83398,-2.66114 1.5625,-2.66113 1.5625,-7.6416 0,-5.07812 -1.5625,-7.59277 -1.53808,-2.51465 -4.88281,-2.51465 z"
               style="font-size:50px"
               id="path4196"
               inkscape:connector-curvature="0" /><path
               d="m 773.11981,605.67847 q 0,-0.92774 0.24414,-1.5625 0.24414,-0.65918 0.65918,-1.04981 0.41504,-0.41504 0.97656,-0.58594 0.56153,-0.19531 1.22071,-0.19531 0.63476,0 1.19629,0.19531 0.58593,0.1709 1.00097,0.58594 0.41504,0.39063 0.65918,1.04981 0.24414,0.63476 0.24414,1.5625 0,0.90332 -0.24414,1.5625 -0.24414,0.63476 -0.65918,1.0498 -0.41504,0.41504 -1.00097,0.61035 -0.56153,0.19532 -1.19629,0.19532 -0.65918,0 -1.22071,-0.19532 -0.56152,-0.19531 -0.97656,-0.61035 -0.41504,-0.41504 -0.65918,-1.0498 -0.24414,-0.65918 -0.24414,-1.5625 z"
               style="font-size:50px"
               id="path4198"
               inkscape:connector-curvature="0" /><path
               d="m 791.60126,608.38843 -4.44336,0 0,-26.80664 4.44336,0 0,26.80664 z m -4.78516,-34.05762 q 0,-1.46484 0.73242,-2.12402 0.75684,-0.65918 1.85547,-0.65918 0.53711,0 1.00098,0.1709 0.48828,0.14648 0.83008,0.48828 0.36621,0.34179 0.56152,0.8789 0.21973,0.5127 0.21973,1.24512 0,1.41602 -0.78125,2.12402 -0.75684,0.6836 -1.83106,0.6836 -1.09863,0 -1.85547,-0.6836 -0.73242,-0.68359 -0.73242,-2.12402 z"
               style="font-size:50px"
               id="path4200"
               inkscape:connector-curvature="0" /><path
               d="m 821.99677,594.93628 q 0,3.34473 -0.83008,5.95703 -0.80567,2.58789 -2.34375,4.37012 -1.51367,1.75781 -3.68653,2.68554 -2.17285,0.92774 -4.88281,0.92774 -2.51465,0 -4.63867,-0.92774 -2.12402,-0.92773 -3.68652,-2.68554 -1.53809,-1.78223 -2.417,-4.37012 -0.85449,-2.6123 -0.85449,-5.95703 0,-3.32031 0.80567,-5.88379 0.83007,-2.58789 2.34375,-4.3457 1.51367,-1.78223 3.68652,-2.68555 2.19726,-0.92773 4.90723,-0.92773 2.51464,0 4.63867,0.92773 2.12402,0.90332 3.66211,2.68555 1.5625,1.75781 2.41699,4.3457 0.87891,2.56348 0.87891,5.88379 z m -18.75,0 q 0,5.10254 1.66015,7.69043 1.68457,2.56348 5.44434,2.56348 3.75976,0 5.39551,-2.56348 1.66015,-2.58789 1.66015,-7.69043 0,-5.10254 -1.68457,-7.61719 -1.66016,-2.53906 -5.41992,-2.53906 -3.75977,0 -5.41992,2.53906 -1.63574,2.51465 -1.63574,7.61719 z"
               style="font-size:50px"
               id="path4202"
               inkscape:connector-curvature="0" /></g></g></g></g><g
       style="fill:#ffffff"
       id="g4163"><path
         id="XMLID_40_"
         class="st0"
         d="m 367.3,363.6 16.3,-23.3 c 7.8,7.5 19.4,13.4 33.4,13.4 5.9,0 11.5,-1.6 11.5,-5.6 0,-9.9 -57.8,0.2 -57.8,-40.7 0,-17.6 14.6,-34.3 43,-34.3 16.9,0 32.2,4.8 44,14.5 l -16.8,22.2 c -9,-6.8 -20.7,-10.3 -30.5,-10.3 -6.2,0 -7.9,2 -7.9,4.7 0,9.8 57.7,1.4 57.7,39.9 0,22.8 -16.9,36.1 -44.8,36.1 -22,-0.1 -37.1,-6.7 -48.1,-16.6 z"
         style="enable-background:new 0 0 1190.59999999999990905 841.89999999999986358;fill:#ffffff" /><path
         id="XMLID_38_"
         class="st0"
         d="m 565.7,378.2 0,-43.8 c 0,-4.5 -2.3,-8.4 -8.5,-8.4 -6.2,0 -9.6,3.7 -11.5,5.9 l 0,46.3 -28,0 0,-43.8 c 0,-4.5 -2.2,-8.4 -8.5,-8.4 -6.1,0 -9.5,3.7 -11.3,5.9 l 0,46.3 -28,0 0,-75.1 28,0 0,8.5 c 3.3,-4.2 12.7,-10.4 24.9,-10.4 10.6,0 18.2,3.9 21.6,13.2 4.4,-6.5 14.1,-13.2 26.3,-13.2 13.8,0 23.2,7 23.2,22.5 l 0,54.4 -28.2,0 z"
         style="enable-background:new 0 0 1190.59999999999990905 841.89999999999986358;fill:#ffffff" /><path
         id="XMLID_35_"
         class="st0"
         d="m 652.6,378.2 0,-7.2 c -4.2,5.3 -13.4,9 -22.7,9 -11.2,0 -25.8,-7.6 -25.8,-24.7 0,-18.6 14.6,-23.9 25.8,-23.9 9.8,0 18.6,3.1 22.7,8.2 l 0,-7.8 c 0,-5.3 -4.8,-9.3 -14,-9.3 -7,0 -14.9,2.8 -20.8,7.3 l -9.5,-17.2 c 10.1,-8.1 24.1,-11.3 35.4,-11.3 18.6,0 36.8,6.5 36.8,31.5 l 0,45.4 -27.9,0 z m 0,-20.4 0,-4.2 c -1.9,-2.6 -6.7,-4 -11,-4 -4.7,0 -9.8,1.6 -9.8,6.2 0,4.7 5.1,6.1 9.8,6.1 4.3,0 9.1,-1.4 11,-4.1 z"
         style="enable-background:new 0 0 1190.59999999999990905 841.89999999999986358;fill:#ffffff" /><path
         id="XMLID_33_"
         class="st0"
         d="m 694.7,378.2 0,-75.1 28,0 0,8.9 c 4.7,-5.4 14.5,-8.9 23,-8.9 l 0,24.2 c -2.3,-0.4 -3.7,-0.5 -6.4,-0.5 -5.9,0 -13.5,4.2 -16.6,7.9 l 0,43.3 -28,0 z"
         style="enable-background:new 0 0 1190.59999999999990905 841.89999999999986358;fill:#ffffff" /><path
         id="XMLID_31_"
         class="st0"
         d="m 767.3,356.4 0,-29.1 -12.4,0 0,-24.2 12.4,0 0,-27.5 28,0 0,27.5 15.2,0 0,24.2 -15.2,0 0,21 c 0,3.9 2.5,7 6.2,7 2.5,0 5,-0.8 5.6,-1.4 l 5,21.1 c -3,2.6 -9.5,5 -19,5 -16.6,0.1 -25.8,-7.9 -25.8,-23.6 z"
         style="enable-background:new 0 0 1190.59999999999990905 841.89999999999986358;fill:#ffffff" /><path
         id="XMLID_28_"
         class="st0"
         d="m 871.4,378.2 0,-7.9 c -6.4,7.1 -13.5,9.8 -21.1,9.8 -18.2,0 -33.1,-13.7 -33.1,-39.5 0,-24.9 14.6,-39.3 33.1,-39.3 7.6,0 15.2,2.6 21.1,9.8 l 0,-35.5 28,0 0,102.7 -28,0 z m 0,-28 0,-19.3 c -2.6,-3.3 -7.9,-5 -11.7,-5 -7.6,0 -14,5.3 -14,14.6 0,9.3 6.4,14.8 14,14.8 3.8,0 9.1,-1.8 11.7,-5.1 z"
         style="enable-background:new 0 0 1190.59999999999990905 841.89999999999986358;fill:#ffffff" /><path
         id="XMLID_26_"
         class="st0"
         d="m 953.3,340.6 c 0,-23.8 18.3,-39.3 42.1,-39.3 17.1,0 27.7,7.8 31.9,14.1 l -18,16.9 c -2.3,-3.6 -6.7,-6.4 -12.6,-6.4 -7.9,0 -14.8,5 -14.8,14.6 0,9.6 6.8,14.8 14.8,14.8 5.9,0 10.3,-3.1 12.6,-6.5 l 18,17.1 c -4.2,6.2 -14.8,14.1 -31.9,14.1 -23.7,0.1 -42.1,-15.5 -42.1,-39.4 z"
         style="enable-background:new 0 0 1190.59999999999990905 841.89999999999986358;fill:#ffffff" /><path
         id="XMLID_23_"
         class="st0"
         d="m 1031.3,340.6 c 0,-21.8 16.6,-39.3 40.9,-39.3 22.1,0 39,15.9 39,42.3 l 0,5.7 -51,0 c 1.6,4.8 7,9.5 16.2,9.5 4.2,0 13.5,-2 17.2,-5.3 l 11.5,17.2 c -7.5,6.4 -20.8,9.3 -32,9.3 -23.4,0.1 -41.8,-14.7 -41.8,-39.4 z m 40.9,-18 c -8.5,0 -11.3,5.6 -12.3,9 l 24.7,0 c -0.7,-3.3 -3.4,-9 -12.4,-9 z"
         style="enable-background:new 0 0 1190.59999999999990905 841.89999999999986358;fill:#ffffff" /><g
         id="XMLID_17_"
         style="enable-background:new 0 0 1190.59999999999990905 841.89999999999986358;fill:#ffffff"
         transform="translate(0,-112)"><rect
           id="XMLID_21_"
           x="914.90002"
           y="415.10001"
           class="st0"
           width="28"
           height="75.099998"
           style="fill:#ffffff" /><path
           id="XMLID_19_"
           class="st0"
           d="m 915.7,387.6 c -1.5,2.4 -2.5,4.3 -2.5,7.4 0,8.7 7,15.7 15.7,15.7 8.7,0 15.7,-7 15.7,-15.7 0,-3.1 -0.9,-5 -2.5,-7.4 l -26.4,0 z"
           style="fill:#ffffff" /></g><path
         id="XMLID_15_"
         class="st0"
         d="m 267.5,270.5 0,0 c -1.9,-1.1 -4.2,-1.1 -6.1,0 l -82.4,48.2 -16.1,-9.1 74.8,-43.8 c 2.9,-1.7 3.8,-5.4 2.2,-8.3 -0.8,-1.4 -2.1,-2.4 -3.7,-2.8 -1.6,-0.4 -3.2,-0.2 -4.6,0.6 l -80.8,47.3 -16.8,-9.5 76.5,-44.8 c 2.9,-1.7 3.8,-5.4 2.2,-8.3 -1.7,-2.9 -5.4,-3.8 -8.3,-2.2 l -82.6,48.4 -16.1,-9.1 75,-43.9 c 2.9,-1.7 3.8,-5.4 2.2,-8.3 -1.7,-2.9 -5.4,-3.8 -8.3,-2.2 l -83.5,48.7 c -0.4,0.3 -0.8,0.6 -1.2,0.9 -0.7,0.5 -1.2,1.1 -1.6,1.8 -1.6,2.9 -0.6,6.6 2.3,8.2 l 82,46.5 0,18.7 -76.1,-43.1 c -2.9,-1.6 -6.6,-0.6 -8.2,2.3 -1.6,2.9 -0.6,6.6 2.3,8.2 l 82,46.5 0,18.7 L 96.5,337 c -2.9,-1.6 -6.6,-0.6 -8.2,2.3 -1.6,2.9 -0.6,6.6 2.3,8.2 l 82,46.5 0,18.7 -76.1,-43.1 c -2.9,-1.6 -6.6,-0.6 -8.2,2.3 -1.6,2.9 -0.6,6.6 2.3,8.2 l 84.2,47.7 c 0.9,0.5 1.9,0.8 3,0.8 0.3,0 0.6,0 1,-0.1 3.3,0 6,-2.7 6,-6 l 0,-93.1 16.7,-9.8 0,87.9 c 0,3.3 2.7,6 6,6 3.3,0 6,-2.7 6,-6 l 0,-95 17.7,-10.4 0,89.6 c 0,3.3 2.7,6 6,6 3.3,0 6,-2.7 6,-6 l 0,-96.7 15.1,-8.9 0,90.3 c 0,3.3 2.7,6 6,6 3.3,0 6,-2.7 6,-6 l 0,-100.8 c 0.3,-2 -0.9,-4 -2.8,-5.1 z"
         style="fill:#ffffff" /></g></g></svg>